<svg xmlns="http://www.w3.org/2000/svg" width="279.366" height="257.593" viewBox="0 0 279.366 257.593">
  <g id="Group_23" data-name="Group 23" transform="translate(-1089 -1212)">
    <g id="_2005372" data-name="2005372" transform="translate(1089 1212)">
      <path id="Path_234" data-name="Path 234" d="M266.27,159.681H239.984a21.6,21.6,0,0,0,4.474-13.1V24.319A21.85,21.85,0,0,0,222.633,2.494H56.733A21.85,21.85,0,0,0,34.908,24.319V146.586a21.624,21.624,0,0,0,4.474,13.1H13.1A13.111,13.111,0,0,0,0,172.776v74.215a13.111,13.111,0,0,0,13.1,13.1H266.27a13.111,13.111,0,0,0,13.1-13.1V172.776a13.111,13.111,0,0,0-13.1-13.1Zm-222.633-13.1V24.319a13.111,13.111,0,0,1,13.1-13.1h165.9a13.111,13.111,0,0,1,13.1,13.1V146.586a13.111,13.111,0,0,1-13.1,13.1H56.733A13.111,13.111,0,0,1,43.638,146.586Zm227,100.406a4.367,4.367,0,0,1-4.365,4.365H13.1a4.367,4.367,0,0,1-4.365-4.365V172.776a4.367,4.367,0,0,1,4.365-4.365H266.27a4.367,4.367,0,0,1,4.365,4.365Z" transform="translate(0 -2.494)" fill="#f2f2f7"/>
      <path id="Path_235" data-name="Path 235" d="M172.968,41.5H30.326A4.319,4.319,0,0,0,26,45.827v64.852A4.319,4.319,0,0,0,30.326,115H172.968a4.319,4.319,0,0,0,4.323-4.323V45.827A4.319,4.319,0,0,0,172.968,41.5Zm-4.323,64.852h-134V50.15h134Z" transform="translate(89.106 129.622)" fill="#f2f2f7"/>
      <path id="Path_236" data-name="Path 236" d="M33.325,66.118H150.034a4.319,4.319,0,0,0,4.323-4.323V48.827a4.319,4.319,0,0,0-4.323-4.323H33.325A4.319,4.319,0,0,0,29,48.827V61.8A4.319,4.319,0,0,0,33.325,66.118ZM37.648,53.15H145.711v4.323H37.648Z" transform="translate(99.072 139.037)" fill="#f2f2f7"/>
      <path id="Path_237" data-name="Path 237" d="M33.325,72.118H150.034a4.319,4.319,0,0,0,4.323-4.323V54.827a4.319,4.319,0,0,0-4.323-4.323H33.325A4.319,4.319,0,0,0,29,54.827V67.8A4.319,4.319,0,0,0,33.325,72.118ZM37.648,59.15H145.711v4.323H37.648Z" transform="translate(99.072 159.528)" fill="#f2f2f7"/>
      <path id="Path_238" data-name="Path 238" d="M26.324,53.5A4.319,4.319,0,0,0,22,57.827V70.8a4.323,4.323,0,0,0,8.646,0V57.827A4.319,4.319,0,0,0,26.324,53.5Z" transform="translate(74.065 169.497)" fill="#f2f2f7"/>
      <path id="Path_239" data-name="Path 239" d="M23.324,53.5A4.319,4.319,0,0,0,19,57.827V70.8a4.323,4.323,0,0,0,8.646,0V57.827A4.319,4.319,0,0,0,23.324,53.5Z" transform="translate(63.966 169.497)" fill="#f2f2f7"/>
      <path id="Path_240" data-name="Path 240" d="M20.324,53.5A4.319,4.319,0,0,0,16,57.827V70.8a4.323,4.323,0,0,0,8.646,0V57.827A4.319,4.319,0,0,0,20.324,53.5Z" transform="translate(53.867 169.497)" fill="#f2f2f7"/>
      <path id="Path_241" data-name="Path 241" d="M17.324,53.5A4.319,4.319,0,0,0,13,57.827V70.8a4.323,4.323,0,0,0,8.646,0V57.827A4.319,4.319,0,0,0,17.324,53.5Z" transform="translate(43.767 169.497)" fill="#f2f2f7"/>
      <path id="Path_242" data-name="Path 242" d="M14.324,53.5A4.319,4.319,0,0,0,10,57.827V70.8a4.323,4.323,0,0,0,8.646,0V57.827A4.319,4.319,0,0,0,14.324,53.5Z" transform="translate(33.232 169.497)" fill="#f2f2f7"/>
      <path id="Path_243" data-name="Path 243" d="M11.324,53.5A4.319,4.319,0,0,0,7,57.827V70.8a4.323,4.323,0,0,0,8.646,0V57.827A4.319,4.319,0,0,0,11.324,53.5Z" transform="translate(23.263 169.497)" fill="#f2f2f7"/>
      <path id="Path_244" data-name="Path 244" d="M8.324,53.5A4.319,4.319,0,0,0,4,57.827V70.8a4.323,4.323,0,0,0,8.646,0V57.827A4.319,4.319,0,0,0,8.324,53.5Z" transform="translate(13.295 169.497)" fill="#f2f2f7"/>
      <path id="Path_245" data-name="Path 245" d="M20.291,41.5A17.291,17.291,0,1,0,37.583,58.8,17.309,17.309,0,0,0,20.291,41.5Zm0,25.937A8.646,8.646,0,1,1,28.937,58.8,8.654,8.654,0,0,1,20.291,67.441Z" transform="translate(9.969 129.036)" fill="#f2f2f7"/>
      <path id="Path_246" data-name="Path 246" d="M187.617,131.866V10.817a4.353,4.353,0,0,0-4.39-4.323H16.39A4.353,4.353,0,0,0,12,10.817V131.866a4.353,4.353,0,0,0,4.39,4.323H183.226A4.353,4.353,0,0,0,187.617,131.866Zm-8.781-4.323H20.781V15.14H178.836Z" transform="translate(39.874 10.797)" fill="#f2f2f7"/>
    </g>
    <g id="graph" transform="translate(1161.825 1255.797)">
      <g id="Group_6" data-name="Group 6" transform="translate(0 0)">
        <path id="Path_247" data-name="Path 247" d="M121.064,141.965a12.988,12.988,0,0,0-12.255,9.1H96.369a3.668,3.668,0,0,0-3.342,2.228l-5.013,10.955-9.284-21.911a3.4,3.4,0,0,0-3.528-2.228,3.847,3.847,0,0,0-3.342,2.414l-8.727,24.51L55.7,114.3a3.748,3.748,0,0,0-3.342-3.157,3.644,3.644,0,0,0-3.9,2.414l-14.3,38.436H25.253a12.576,12.576,0,0,0-12.441-9.841A12.812,12.812,0,1,0,24.7,159.6H36.58a3.808,3.808,0,0,0,3.528-2.414l10.027-27.11L58.119,183a3.571,3.571,0,0,0,3.342,3.157,3.749,3.749,0,0,0,3.9-2.414l10.584-29.709,8.727,20.982a3.621,3.621,0,0,0,6.685,0l7.427-16.526H108.81a12.988,12.988,0,0,0,12.255,9.1,12.812,12.812,0,1,0,0-25.624ZM13,160.162a5.385,5.385,0,1,1,5.385-5.385A5.389,5.389,0,0,1,13,160.162Zm108.067,0a5.385,5.385,0,1,1,5.385-5.385A5.389,5.389,0,0,1,121.064,160.162Z" transform="translate(0 -111.119)" fill="#f2f2f7"/>
      </g>
    </g>
  </g>
</svg>
