<svg xmlns="http://www.w3.org/2000/svg" width="400" height="400" viewBox="0 0 400 400">
  <g id="Group_24" data-name="Group 24" transform="translate(562 440)">
    <rect id="Rectangle_249" data-name="Rectangle 249" width="400" height="400" rx="200" transform="translate(-562 -440)" fill="#1a1a1a"/>
    <g id="Group_23" data-name="Group 23" transform="translate(-1565 -1557.453)">
      <g id="_2005372" data-name="2005372" transform="translate(1089 1212)">
        <path id="Path_234" data-name="Path 234" d="M217.313,130.78H195.859a17.625,17.625,0,0,0,3.652-10.687V20.307A17.833,17.833,0,0,0,181.7,2.494H46.3A17.833,17.833,0,0,0,28.489,20.307v99.786a17.648,17.648,0,0,0,3.652,10.687H10.688A10.7,10.7,0,0,0,0,141.467v60.57a10.7,10.7,0,0,0,10.688,10.688H217.313A10.7,10.7,0,0,0,228,202.037v-60.57a10.7,10.7,0,0,0-10.687-10.687Zm-181.7-10.687V20.307A10.7,10.7,0,0,1,46.3,9.619H181.7a10.7,10.7,0,0,1,10.688,10.688v99.786A10.7,10.7,0,0,1,181.7,130.78H46.3A10.7,10.7,0,0,1,35.614,120.092Zm185.261,81.945a3.564,3.564,0,0,1-3.562,3.563H10.687a3.564,3.564,0,0,1-3.563-3.563v-60.57a3.564,3.564,0,0,1,3.563-3.562H217.313a3.564,3.564,0,0,1,3.562,3.563Z" transform="translate(0 -2.494)" fill="#f2f2f7"/>
        <path id="Path_235" data-name="Path 235" d="M145.946,41.5H29.531A3.525,3.525,0,0,0,26,45.032V97.96a3.525,3.525,0,0,0,3.528,3.528H145.946a3.525,3.525,0,0,0,3.528-3.528V45.032A3.525,3.525,0,0,0,145.946,41.5Zm-3.528,52.928H33.059V48.56H142.418Z" transform="translate(67.942 98.158)" fill="#f2f2f7"/>
        <path id="Path_236" data-name="Path 236" d="M32.53,62.144h95.25a3.525,3.525,0,0,0,3.528-3.528V48.032A3.525,3.525,0,0,0,127.78,44.5H32.53A3.525,3.525,0,0,0,29,48.032V58.616A3.525,3.525,0,0,0,32.53,62.144ZM36.058,51.56h88.194v3.528H36.058Z" transform="translate(75.523 105.291)" fill="#f2f2f7"/>
        <path id="Path_237" data-name="Path 237" d="M32.53,68.144h95.25a3.525,3.525,0,0,0,3.528-3.528V54.032A3.525,3.525,0,0,0,127.78,50.5H32.53A3.525,3.525,0,0,0,29,54.032V64.616A3.525,3.525,0,0,0,32.53,68.144ZM36.058,57.56h88.194v3.528H36.058Z" transform="translate(75.523 120.911)" fill="#f2f2f7"/>
        <path id="Path_238" data-name="Path 238" d="M25.529,53.5A3.525,3.525,0,0,0,22,57.032V67.616a3.528,3.528,0,0,0,7.056,0V57.032A3.525,3.525,0,0,0,25.529,53.5Z" transform="translate(56.402 128.495)" fill="#f2f2f7"/>
        <path id="Path_239" data-name="Path 239" d="M22.529,53.5A3.525,3.525,0,0,0,19,57.032V67.616a3.528,3.528,0,0,0,7.056,0V57.032A3.525,3.525,0,0,0,22.529,53.5Z" transform="translate(48.711 128.495)" fill="#f2f2f7"/>
        <path id="Path_240" data-name="Path 240" d="M19.529,53.5A3.525,3.525,0,0,0,16,57.032V67.616a3.528,3.528,0,0,0,7.056,0V57.032A3.525,3.525,0,0,0,19.529,53.5Z" transform="translate(41.02 128.495)" fill="#f2f2f7"/>
        <path id="Path_241" data-name="Path 241" d="M16.529,53.5A3.525,3.525,0,0,0,13,57.032V67.616a3.528,3.528,0,0,0,7.056,0V57.032A3.525,3.525,0,0,0,16.529,53.5Z" transform="translate(33.33 128.495)" fill="#f2f2f7"/>
        <path id="Path_242" data-name="Path 242" d="M13.529,53.5A3.525,3.525,0,0,0,10,57.032V67.616a3.528,3.528,0,0,0,7.056,0V57.032A3.525,3.525,0,0,0,13.529,53.5Z" transform="translate(25.283 128.495)" fill="#f2f2f7"/>
        <path id="Path_243" data-name="Path 243" d="M10.529,53.5A3.525,3.525,0,0,0,7,57.032V67.616a3.528,3.528,0,0,0,7.056,0V57.032A3.525,3.525,0,0,0,10.529,53.5Z" transform="translate(17.699 128.495)" fill="#f2f2f7"/>
        <path id="Path_244" data-name="Path 244" d="M7.529,53.5A3.525,3.525,0,0,0,4,57.032V67.616a3.528,3.528,0,0,0,7.056,0V57.032A3.525,3.525,0,0,0,7.529,53.5Z" transform="translate(10.115 128.495)" fill="#f2f2f7"/>
        <path id="Path_245" data-name="Path 245" d="M17.112,41.5A14.112,14.112,0,1,0,31.224,55.616,14.126,14.126,0,0,0,17.112,41.5Zm0,21.168a7.056,7.056,0,1,1,7.056-7.056A7.063,7.063,0,0,1,17.112,62.672Z" transform="translate(7.584 97.68)" fill="#f2f2f7"/>
        <path id="Path_246" data-name="Path 246" d="M155.327,108.814V10.022a3.553,3.553,0,0,0-3.583-3.528H15.583A3.553,3.553,0,0,0,12,10.022v98.792a3.553,3.553,0,0,0,3.583,3.528H151.744A3.553,3.553,0,0,0,155.327,108.814Zm-7.166-3.528H19.166V13.55H148.161Z" transform="translate(30.337 7.618)" fill="#f2f2f7"/>
      </g>
      <g id="graph" transform="translate(1148.435 1247.744)">
        <g id="Group_6" data-name="Group 6" transform="translate(0 0)">
          <path id="Path_247" data-name="Path 247" d="M98.8,136.293a10.6,10.6,0,0,0-10,7.426H78.65a2.994,2.994,0,0,0-2.728,1.819l-4.092,8.941L64.254,136.6a2.773,2.773,0,0,0-2.879-1.818,3.139,3.139,0,0,0-2.728,1.97l-7.122,20-6.062-43.038a3.059,3.059,0,0,0-2.728-2.576,2.974,2.974,0,0,0-3.182,1.97L27.884,144.477H20.61a10.264,10.264,0,0,0-10.153-8.032,10.456,10.456,0,1,0,9.7,14.245h9.7a3.108,3.108,0,0,0,2.879-1.97l8.183-22.125,6.516,43.189a2.914,2.914,0,0,0,2.728,2.576,3.06,3.06,0,0,0,3.182-1.97l8.638-24.247L69.1,163.268a2.955,2.955,0,0,0,5.456,0L80.62,149.78H88.8a10.6,10.6,0,0,0,10,7.425,10.456,10.456,0,1,0,0-20.913Zm-88.2,14.851A4.395,4.395,0,1,1,15,146.75,4.4,4.4,0,0,1,10.608,151.144Zm88.2,0a4.395,4.395,0,1,1,4.395-4.395A4.4,4.4,0,0,1,98.8,151.144Z" transform="translate(0 -111.119)" fill="#f2f2f7"/>
        </g>
      </g>
    </g>
  </g>
</svg>
