<svg xmlns="http://www.w3.org/2000/svg" width="31.815" height="29.335" viewBox="0 0 31.815 29.335">
  <g id="Group_25" data-name="Group 25" transform="translate(-328 -19.547)">
    <g id="Group_15" data-name="Group 15" transform="translate(-204 -241)">
      <g id="Group_14" data-name="Group 14" transform="translate(532 260.547)">
        <g id="_2005372" data-name="2005372" transform="translate(0)">
          <path id="Path_234" data-name="Path 234" d="M30.324,20.395H27.33a2.459,2.459,0,0,0,.51-1.491V4.98a2.488,2.488,0,0,0-2.486-2.486H6.461A2.488,2.488,0,0,0,3.975,4.98V18.9a2.463,2.463,0,0,0,.51,1.491H1.491A1.493,1.493,0,0,0,0,21.886v8.452a1.493,1.493,0,0,0,1.491,1.491H30.324a1.493,1.493,0,0,0,1.491-1.491V21.886A1.493,1.493,0,0,0,30.324,20.395ZM4.97,18.9V4.98A1.493,1.493,0,0,1,6.461,3.488H25.354A1.493,1.493,0,0,1,26.845,4.98V18.9a1.493,1.493,0,0,1-1.491,1.491H6.461A1.493,1.493,0,0,1,4.97,18.9ZM30.821,30.338a.5.5,0,0,1-.5.5H1.491a.5.5,0,0,1-.5-.5V21.886a.5.5,0,0,1,.5-.5H30.324a.5.5,0,0,1,.5.5Z" transform="translate(0 -2.494)" fill="#f2f2f7"/>
          <path id="Path_235" data-name="Path 235" d="M42.829,41.5H26.5A.494.494,0,0,0,26,42v7.425a.494.494,0,0,0,.495.495H42.829a.494.494,0,0,0,.495-.495V42A.494.494,0,0,0,42.829,41.5Zm-.495,7.425H26.993V42.494H42.334Z" transform="translate(-12.994 -22.068)" fill="#f2f2f7"/>
          <path id="Path_236" data-name="Path 236" d="M29.5,46.979H42.859a.494.494,0,0,0,.495-.495V45a.494.494,0,0,0-.495-.495H29.5A.494.494,0,0,0,29,45v1.485A.494.494,0,0,0,29.5,46.979Zm.495-1.485H42.364v.495H29.992Z" transform="translate(-14.508 -23.612)" fill="#f2f2f7"/>
          <path id="Path_237" data-name="Path 237" d="M29.5,52.979H42.859a.494.494,0,0,0,.495-.495V51a.494.494,0,0,0-.495-.495H29.5A.494.494,0,0,0,29,51v1.485A.494.494,0,0,0,29.5,52.979Zm.495-1.485H42.364v.495H29.992Z" transform="translate(-14.508 -26.614)" fill="#f2f2f7"/>
          <path id="Path_238" data-name="Path 238" d="M22.5,53.5A.494.494,0,0,0,22,54v1.485a.495.495,0,1,0,.99,0V54A.494.494,0,0,0,22.5,53.5Z" transform="translate(-11.063 -28.129)" fill="#f2f2f7"/>
          <path id="Path_239" data-name="Path 239" d="M19.5,53.5A.494.494,0,0,0,19,54v1.485a.495.495,0,1,0,.99,0V54A.494.494,0,0,0,19.5,53.5Z" transform="translate(-9.554 -28.129)" fill="#f2f2f7"/>
          <path id="Path_240" data-name="Path 240" d="M16.5,53.5A.494.494,0,0,0,16,54v1.485a.495.495,0,1,0,.99,0V54A.494.494,0,0,0,16.5,53.5Z" transform="translate(-8.046 -28.129)" fill="#f2f2f7"/>
          <path id="Path_241" data-name="Path 241" d="M13.5,53.5A.494.494,0,0,0,13,54v1.485a.495.495,0,1,0,.99,0V54A.494.494,0,0,0,13.5,53.5Z" transform="translate(-6.537 -28.129)" fill="#f2f2f7"/>
          <path id="Path_242" data-name="Path 242" d="M10.5,53.5A.494.494,0,0,0,10,54v1.485a.495.495,0,1,0,.99,0V54A.494.494,0,0,0,10.5,53.5Z" transform="translate(-5.051 -28.129)" fill="#f2f2f7"/>
          <path id="Path_243" data-name="Path 243" d="M7.5,53.5A.494.494,0,0,0,7,54v1.485a.495.495,0,1,0,.99,0V54A.494.494,0,0,0,7.5,53.5Z" transform="translate(-3.536 -28.129)" fill="#f2f2f7"/>
          <path id="Path_244" data-name="Path 244" d="M4.5,53.5A.494.494,0,0,0,4,54v1.485a.495.495,0,1,0,.99,0V54A.494.494,0,0,0,4.5,53.5Z" transform="translate(-2.021 -28.129)" fill="#f2f2f7"/>
          <path id="Path_245" data-name="Path 245" d="M4.98,41.5a1.98,1.98,0,1,0,1.98,1.98A1.982,1.982,0,0,0,4.98,41.5Zm0,2.97a.99.99,0,1,1,.99-.99A.991.991,0,0,1,4.98,44.474Z" transform="translate(-1.515 -22.098)" fill="#f2f2f7"/>
          <path id="Path_246" data-name="Path 246" d="M31.937,20.848V6.989a.5.5,0,0,0-.5-.495H12.5a.5.5,0,0,0-.5.495V20.848a.5.5,0,0,0,.5.495h18.94A.5.5,0,0,0,31.937,20.848Zm-1-.495H13V7.484H30.94Z" transform="translate(-6.061 -4.514)" fill="#f2f2f7"/>
        </g>
        <g id="graph" transform="translate(8.253 4.977)">
          <g id="Group_6" data-name="Group 6" transform="translate(0 0)">
            <path id="Path_247" data-name="Path 247" d="M13.861,114.65a1.487,1.487,0,0,0-1.4,1.042H11.033a.42.42,0,0,0-.383.255l-.574,1.254-1.063-2.509a.389.389,0,0,0-.4-.255.44.44,0,0,0-.383.276l-1,2.806-.85-6.037a.429.429,0,0,0-.383-.361.417.417,0,0,0-.446.276l-1.637,4.4H2.891a1.44,1.44,0,0,0-1.424-1.127,1.467,1.467,0,1,0,1.361,2H4.188a.436.436,0,0,0,.4-.276l1.148-3.1.914,6.059a.409.409,0,0,0,.383.361.429.429,0,0,0,.446-.276l1.212-3.4,1,2.4a.415.415,0,0,0,.765,0l.85-1.892h1.148a1.487,1.487,0,0,0,1.4,1.042,1.467,1.467,0,1,0,0-2.934ZM1.488,116.733a.617.617,0,1,1,.617-.617A.617.617,0,0,1,1.488,116.733Zm12.373,0a.617.617,0,1,1,.617-.617A.617.617,0,0,1,13.861,116.733Z" transform="translate(0 -111.119)" fill="#f2f2f7"/>
          </g>
        </g>
      </g>
    </g>
  </g>
</svg>
