<svg xmlns="http://www.w3.org/2000/svg" xmlns:xlink="http://www.w3.org/1999/xlink" width="509" height="312" viewBox="0 0 509 312">
  <defs>
    <clipPath id="clip-path">
      <rect id="Rectangle_253" data-name="Rectangle 253" width="244" height="312" transform="translate(0.217)"/>
    </clipPath>
    <linearGradient id="linear-gradient" x1="0.5" y1="1" x2="0.5" gradientUnits="objectBoundingBox">
      <stop offset="0" stop-color="gray" stop-opacity="0.251"/>
      <stop offset="0.54" stop-color="gray" stop-opacity="0.122"/>
      <stop offset="1" stop-color="gray" stop-opacity="0.102"/>
    </linearGradient>
    <linearGradient id="linear-gradient-3" x1="0.5" y1="1" x2="0.5" gradientUnits="objectBoundingBox">
      <stop offset="0" stop-opacity="0.122"/>
      <stop offset="0.55" stop-opacity="0.09"/>
      <stop offset="1" stop-opacity="0.02"/>
    </linearGradient>
    <linearGradient id="linear-gradient-13" x1="0" y1="0.5" x2="1" y2="0.5" xlink:href="#linear-gradient-3"/>
    <linearGradient id="linear-gradient-19" x1="0" y1="0.5" x2="1" y2="0.5" xlink:href="#linear-gradient"/>
    <linearGradient id="linear-gradient-22" x1="0.5" y1="1" x2="0.5" gradientUnits="objectBoundingBox">
      <stop offset="0" stop-color="#f7cd46"/>
      <stop offset="1" stop-color="#f9d74a"/>
    </linearGradient>
    <clipPath id="clip-path-2">
      <rect id="Rectangle_255" data-name="Rectangle 255" width="245" height="312"/>
    </clipPath>
    <linearGradient id="linear-gradient-23" x1="0.5" y1="1" x2="0.5" gradientUnits="objectBoundingBox">
      <stop offset="0" stop-color="#675eff"/>
      <stop offset="1" stop-color="#6383ff"/>
    </linearGradient>
  </defs>
  <g id="Group_33" data-name="Group 33" transform="translate(-479 -2902)">
    <g id="Onboarding_1_of_3_" data-name="Onboarding (1 of 3)" transform="translate(478.783 2902)" clip-path="url(#clip-path)">
      <rect id="Rectangle_252" data-name="Rectangle 252" width="244" height="312" transform="translate(0.217)" fill="#2c2c2e"/>
      <g id="Group_28" data-name="Group 28" transform="translate(7.974 22.927)">
        <g id="Group_18" data-name="Group 18" transform="translate(0 0)">
          <text id="Welcome" transform="translate(66.243 122.073)" fill="#f2f2f7" font-size="21" font-family="Inter-ExtraBold, Inter" font-weight="800"><tspan x="0" y="0">Welcome</tspan></text>
          <g id="undraw_welcome_3gvl_1_" data-name="undraw_welcome_3gvl (1)" transform="translate(58.812)">
            <rect id="Rectangle_104" data-name="Rectangle 104" width="93" height="95" transform="translate(9.431 0.073)" fill="#f9d74a" opacity="0.2"/>
            <rect id="Rectangle_105" data-name="Rectangle 105" width="65.722" height="76.739" transform="translate(22.817 8.551)" fill="#f9d74a" opacity="0.5"/>
            <rect id="Rectangle_106" data-name="Rectangle 106" width="36" height="68" transform="translate(75.431 13.073)" fill="url(#linear-gradient)"/>
            <rect id="Rectangle_107" data-name="Rectangle 107" width="34" height="69" transform="translate(0.431 13.073)" fill="url(#linear-gradient)"/>
            <rect id="Rectangle_108" data-name="Rectangle 108" width="32" height="66" transform="translate(77.431 14.073)" fill="#f9d74a"/>
            <rect id="Rectangle_109" data-name="Rectangle 109" width="32" height="66" transform="translate(33.431 80.073) rotate(180)" fill="#f9d74a"/>
            <rect id="Rectangle_110" data-name="Rectangle 110" width="21" height="4" transform="translate(7.431 20.073)" fill="url(#linear-gradient-3)"/>
            <rect id="Rectangle_111" data-name="Rectangle 111" width="22" height="4" transform="translate(82.431 26.073)" fill="url(#linear-gradient-3)"/>
            <rect id="Rectangle_112" data-name="Rectangle 112" width="22" height="5" transform="translate(82.431 32.073)" fill="url(#linear-gradient-3)"/>
            <rect id="Rectangle_113" data-name="Rectangle 113" width="22" height="5" transform="translate(82.431 38.073)" fill="url(#linear-gradient-3)"/>
            <rect id="Rectangle_114" data-name="Rectangle 114" width="22" height="4" transform="translate(82.431 45.073)" fill="url(#linear-gradient-3)"/>
            <rect id="Rectangle_115" data-name="Rectangle 115" width="22" height="4" transform="translate(82.431 51.073)" fill="url(#linear-gradient-3)"/>
            <rect id="Rectangle_116" data-name="Rectangle 116" width="22" height="4" transform="translate(82.431 57.073)" fill="url(#linear-gradient-3)"/>
            <rect id="Rectangle_117" data-name="Rectangle 117" width="22" height="4" transform="translate(82.431 63.073)" fill="url(#linear-gradient-3)"/>
            <rect id="Rectangle_118" data-name="Rectangle 118" width="22" height="4" transform="translate(82.431 70.073)" fill="url(#linear-gradient-3)"/>
            <rect id="Rectangle_119" data-name="Rectangle 119" width="22" height="4" transform="translate(82.431 20.073)" fill="url(#linear-gradient-3)"/>
            <rect id="Rectangle_120" data-name="Rectangle 120" width="21" height="5" transform="translate(7.431 26.073)" fill="url(#linear-gradient-13)"/>
            <rect id="Rectangle_121" data-name="Rectangle 121" width="21" height="5" transform="translate(7.431 32.073)" fill="url(#linear-gradient-13)"/>
            <rect id="Rectangle_122" data-name="Rectangle 122" width="21" height="5" transform="translate(7.431 38.073)" fill="url(#linear-gradient-13)"/>
            <rect id="Rectangle_123" data-name="Rectangle 123" width="21" height="4" transform="translate(7.431 45.073)" fill="url(#linear-gradient-13)"/>
            <rect id="Rectangle_124" data-name="Rectangle 124" width="21" height="4" transform="translate(7.431 51.073)" fill="url(#linear-gradient-13)"/>
            <rect id="Rectangle_125" data-name="Rectangle 125" width="20" height="3" transform="translate(7.431 21.073)" fill="#fff"/>
            <rect id="Rectangle_126" data-name="Rectangle 126" width="21.134" height="3.092" transform="translate(6.773 26.818)" fill="#fff"/>
            <rect id="Rectangle_127" data-name="Rectangle 127" width="21.134" height="3.092" transform="translate(6.773 33.004)" fill="#fff"/>
            <rect id="Rectangle_128" data-name="Rectangle 128" width="21.134" height="3.092" transform="translate(6.773 39.189)" fill="#fff"/>
            <rect id="Rectangle_129" data-name="Rectangle 129" width="21.134" height="3.092" transform="translate(6.773 45.375)" fill="#fff"/>
            <rect id="Rectangle_130" data-name="Rectangle 130" width="21.134" height="3.092" transform="translate(6.773 51.561)" fill="#fff"/>
            <rect id="Rectangle_131" data-name="Rectangle 131" width="21" height="4" transform="translate(7.431 57.073)" fill="url(#linear-gradient-13)"/>
            <rect id="Rectangle_132" data-name="Rectangle 132" width="21.134" height="3.092" transform="translate(6.773 57.746)" fill="#fff"/>
            <rect id="Rectangle_133" data-name="Rectangle 133" width="21.134" height="3.092" transform="translate(6.773 57.746)" fill="#fff"/>
            <rect id="Rectangle_134" data-name="Rectangle 134" width="21.134" height="3.092" transform="translate(6.773 63.932)" fill="#fff"/>
            <rect id="Rectangle_135" data-name="Rectangle 135" width="21.134" height="3.092" transform="translate(6.773 70.117)" fill="#fff"/>
            <rect id="Rectangle_136" data-name="Rectangle 136" width="21" height="3" transform="translate(83.431 21.073)" fill="#fff"/>
            <rect id="Rectangle_137" data-name="Rectangle 137" width="21" height="3" transform="translate(83.431 27.073)" fill="#fff"/>
            <rect id="Rectangle_138" data-name="Rectangle 138" width="21" height="3" transform="translate(83.431 33.073)" fill="#fff"/>
            <rect id="Rectangle_139" data-name="Rectangle 139" width="21" height="3" transform="translate(83.431 39.073)" fill="#fff"/>
            <rect id="Rectangle_140" data-name="Rectangle 140" width="21" height="3" transform="translate(83.431 45.073)" fill="#fff"/>
            <rect id="Rectangle_141" data-name="Rectangle 141" width="21" height="3" transform="translate(83.431 52.073)" fill="#fff"/>
            <rect id="Rectangle_142" data-name="Rectangle 142" width="21" height="3" transform="translate(83.431 58.073)" fill="#fff"/>
            <rect id="Rectangle_143" data-name="Rectangle 143" width="21" height="3" transform="translate(83.431 64.073)" fill="#fff"/>
            <rect id="Rectangle_144" data-name="Rectangle 144" width="21" height="3" transform="translate(83.431 70.073)" fill="#fff"/>
            <rect id="Rectangle_145" data-name="Rectangle 145" width="78" height="5" transform="translate(16.431 83.073)" fill="url(#linear-gradient-19)"/>
            <rect id="Rectangle_146" data-name="Rectangle 146" width="77" height="4" transform="translate(17.431 84.073)" fill="#f9d74a"/>
            <rect id="Rectangle_147" data-name="Rectangle 147" width="77" height="4" transform="translate(17.431 7.073)" fill="url(#linear-gradient)"/>
            <rect id="Rectangle_148" data-name="Rectangle 148" width="77" height="3" transform="translate(17.431 7.073)" fill="#f9d74a"/>
            <rect id="Rectangle_149" data-name="Rectangle 149" width="38" height="66" transform="translate(36.431 14.073)" fill="#263238" opacity="0.5"/>
            <path id="Path_22" data-name="Path 22" d="M398.928,407.469c.9,1.21-.448,2.636-.448,2.636l.227.076c-.333.37-1.652,2.041-6.734,9.587-6.508,9.665-15.277,12.076-15.277,12.076h0A10.824,10.824,0,0,0,373.122,430v-.913a10.7,10.7,0,0,0,7.126-6.892,10.963,10.963,0,0,0,1.178-4.954,11.449,11.449,0,0,0-22.891,0,10.963,10.963,0,0,0,1.178,4.954,10.7,10.7,0,0,0,7.126,6.892V430a10.824,10.824,0,0,0-3.573,1.844h0s-8.771-2.413-15.281-12.079c-5.082-7.549-6.4-9.219-6.734-9.588l.227-.076s-1.347-1.427-.448-2.636-5.947-2.637-5.163,0a13.16,13.16,0,0,0,1.795,3.955s14.33,22.6,21.81,26.335a10.368,10.368,0,0,0-.265,2.335v4.394H380.75v-4.391a10.362,10.362,0,0,0-.265-2.335c7.474-3.737,21.81-26.334,21.81-26.334a13.16,13.16,0,0,0,1.795-3.955C404.874,404.831,398.027,406.26,398.928,407.469Z" transform="translate(-314.171 -364.794)" fill="url(#linear-gradient)"/>
            <circle id="Ellipse_12" data-name="Ellipse 12" cx="10.961" cy="10.961" r="10.961" transform="translate(44.846 42.077)" fill="#263238"/>
            <circle id="Ellipse_13" data-name="Ellipse 13" cx="10.317" cy="10.317" r="10.317" transform="translate(45.49 44.442)" fill="#f8c198"/>
            <circle id="Ellipse_14" data-name="Ellipse 14" cx="1.29" cy="1.29" r="1.29" transform="translate(50.433 51.211)" fill="#263238"/>
            <circle id="Ellipse_15" data-name="Ellipse 15" cx="1.29" cy="1.29" r="1.29" transform="translate(58.816 51.211)" fill="#263238"/>
            <path id="Path_23" data-name="Path 23" d="M583.667,542.911c0,.774-1.347,2.042-3.009,2.042s-3.009-1.269-3.009-2.042,1.347-.756,3.009-.756S583.667,542.138,583.667,542.911Z" transform="translate(-524.852 -483.425)" fill="#fff"/>
            <circle id="Ellipse_16" data-name="Ellipse 16" cx="0.43" cy="0.43" r="0.43" transform="translate(51.615 52.071)" fill="#fff"/>
            <circle id="Ellipse_17" data-name="Ellipse 17" cx="0.43" cy="0.43" r="0.43" transform="translate(60.104 52.071)" fill="#fff"/>
            <path id="Path_24" data-name="Path 24" d="M564,425.823a1.332,1.332,0,0,1-1.26-1.171,1.546,1.546,0,0,1,.9-1.512.442.442,0,0,1,.19-.049c.216,0,.324.258.393.463a2.586,2.586,0,0,0,1.2,1.546,1.361,1.361,0,0,0,1.764-.447,1.709,1.709,0,0,1-.721-2.365,2.765,2.765,0,0,0,.551-.92c.111-.644-.6-1.114-1.22-1.307-1.8-.558-8.09-.62-8.44,2.072C557,424.972,562.021,426.2,564,425.823Z" transform="translate(-507.164 -376.792)" fill="#263238"/>
            <ellipse id="Ellipse_18" data-name="Ellipse 18" cx="0.644" cy="1.827" rx="0.644" ry="1.827" transform="translate(44.648 53.405) rotate(-21.535)" fill="#f8c198"/>
            <ellipse id="Ellipse_19" data-name="Ellipse 19" cx="1.827" cy="0.644" rx="1.827" ry="0.644" transform="translate(64.423 56.325) rotate(-68.465)" fill="#f8c198"/>
            <path id="Path_25" data-name="Path 25" d="M641.757,464.859s8.4-2.358,14.631-11.815,6.555-9.483,6.555-9.483l3.331,1.316S650.8,469.809,644.138,471.1,641.757,464.859,641.757,464.859Z" transform="translate(-579.519 -397.534)" fill="#ff9800"/>
            <path id="Path_26" data-name="Path 26" d="M812.83,416.512s1.285-1.4.43-2.577,5.7-2.578,4.943,0a13.01,13.01,0,0,1-1.719,3.866Z" transform="translate(-729.726 -370.458)" fill="#f8c198"/>
            <path id="Path_27" data-name="Path 27" d="M385.348,464.859s-8.4-2.358-14.631-11.815-6.555-9.483-6.555-9.483l-3.331,1.316s15.476,24.933,22.139,26.223S385.348,464.859,385.348,464.859Z" transform="translate(-335.973 -397.534)" fill="#ff9800"/>
            <path id="Path_28" data-name="Path 28" d="M352.436,416.512s-1.285-1.4-.43-2.577-5.7-2.578-4.943,0a13.01,13.01,0,0,0,1.719,3.866Z" transform="translate(-323.927 -370.458)" fill="#f8c198"/>
            <g id="Group_2" data-name="Group 2" transform="translate(50.389 43.701)" opacity="0.2">
              <path id="Path_29" data-name="Path 29" d="M623.051,425.754c-.062.355-.361.613-.551.92a1.729,1.729,0,0,0,.428,2.193,1.649,1.649,0,0,1,.11-1.437,2.762,2.762,0,0,0,.551-.92,1.009,1.009,0,0,0-.529-.983A.766.766,0,0,1,623.051,425.754Z" transform="translate(-614.114 -425.527)" fill="#fff"/>
              <path id="Path_30" data-name="Path 30" d="M596.633,441.405c-.042-.1-.08-.194-.113-.293-.07-.2-.177-.454-.393-.463a.44.44,0,0,0-.19.049,1.546,1.546,0,0,0-.9,1.512,1.361,1.361,0,0,0,.576.947,1.211,1.211,0,0,1-.039-.194,1.546,1.546,0,0,1,.9-1.512.5.5,0,0,1,.159-.047Z" transform="translate(-590.383 -438.699)" fill="#fff"/>
              <path id="Path_31" data-name="Path 31" d="M564.3,450.154a7.975,7.975,0,0,1-5.342-1.8c.931,1.98,4.775,2.808,6.443,2.49a1.3,1.3,0,0,1-1.1-.686Z" transform="translate(-558.96 -445.407)" fill="#fff"/>
              <path id="Path_32" data-name="Path 32" d="M614.35,453.68a1.418,1.418,0,0,1-1.643.273,1.871,1.871,0,0,1-.477-.336,2.3,2.3,0,0,0,1.014,1.088,1.366,1.366,0,0,0,1.764-.447,1.531,1.531,0,0,1-.659-.578Z" transform="translate(-605.365 -449.997)" fill="#fff"/>
            </g>
            <path id="Path_33" data-name="Path 33" d="M680.244,452.943s-15.476,24.933-22.146,26.223a7.782,7.782,0,0,1-1.169.143,6.838,6.838,0,0,0,1.6-.143c6.663-1.285,22.139-26.223,22.139-26.223l-.346-.122A1.451,1.451,0,0,1,680.244,452.943Z" transform="translate(-593.915 -405.6)" fill="#fff" opacity="0.2"/>
            <path id="Path_34" data-name="Path 34" d="M361.284,452.943s15.476,24.933,22.146,26.223a7.782,7.782,0,0,0,1.169.143,6.838,6.838,0,0,1-1.6-.143c-6.663-1.285-22.139-26.223-22.139-26.223l.346-.122A1.443,1.443,0,0,0,361.284,452.943Z" transform="translate(-336 -405.6)" fill="#fff" opacity="0.2"/>
            <path id="Path_35" data-name="Path 35" d="M365.257,506.88h0A10.317,10.317,0,0,1,375.574,517.2v4.3H354.94v-4.3a10.317,10.317,0,0,1,10.317-10.317Z" transform="translate(-309.45 -441.804)" fill="#ff9800"/>
            <path id="Path_36" data-name="Path 36" d="M594.224,591.8h0a10.418,10.418,0,0,0-1.125.061c.13,0,.247-.008.373-.008h0a10.317,10.317,0,0,1,10.317,10.317v4.245h.756v-4.3A10.317,10.317,0,0,0,594.224,591.8Z" transform="translate(-538.311 -526.67)" fill="#fff" opacity="0.2"/>
            <path id="Path_37" data-name="Path 37" d="M530.426,591.8h0a10.43,10.43,0,0,1,1.125.061c-.13,0-.247-.008-.373-.008h0a10.317,10.317,0,0,0-10.317,10.317v4.245H520.1v-4.3A10.317,10.317,0,0,1,530.426,591.8Z" transform="translate(-474.726 -526.67)" fill="#fff" opacity="0.2"/>
            <rect id="Rectangle_150" data-name="Rectangle 150" width="6.018" height="7.254" rx="3.009" transform="translate(52.797 62.227)" fill="#f8c198"/>
          </g>
          <g id="Group_29" data-name="Group 29" transform="translate(40.863 135.096)">
            <text id="Thank_you_for_downloading_" data-name="Thank you for downloading " transform="translate(4.887 9)" fill="#8e8e93" font-size="9" font-family="Inter-Medium, Inter" font-weight="500"><tspan x="0" y="0">Thank you for downloading </tspan></text>
            <text id="Proxy_Pulse_I_hope_you_enjoy_" data-name="Proxy Pulse, I hope you enjoy " transform="translate(0 21.854)" fill="#8e8e93" font-size="9" font-family="Inter-Medium, Inter" font-weight="500"><tspan x="0" y="0">Proxy Pulse, I hope you enjoy </tspan></text>
            <text id="my_creation_" data-name="my creation!" transform="translate(42.431 34.707)" fill="#8e8e93" font-size="9" font-family="Inter-Medium, Inter" font-weight="500"><tspan x="0" y="0">my creation!</tspan></text>
          </g>
          <rect id="Rectangle_198" data-name="Rectangle 198" width="228" height="30" rx="3" transform="translate(0.243 251.073)" fill="url(#linear-gradient-22)"/>
          <text id="Next" transform="translate(102.243 269.073)" fill="#f2f2f7" font-size="10" font-family="Inter-SemiBold, Inter" font-weight="600"><tspan x="0" y="0">Next</tspan></text>
        </g>
      </g>
    </g>
    <g id="Onboarding_2_of_3_" data-name="Onboarding (2 of 3)" transform="translate(743 2902)" clip-path="url(#clip-path-2)">
      <rect id="Rectangle_254" data-name="Rectangle 254" width="245" height="312" fill="#2c2c2e"/>
      <g id="Group_31" data-name="Group 31" transform="translate(8 22.108)">
        <g id="Group_30" data-name="Group 30">
          <g id="Group_27" data-name="Group 27">
            <g id="Group_20" data-name="Group 20">
              <g id="Group_17" data-name="Group 17">
                <text id="Need_Help_" data-name="Need Help?" transform="translate(54.83 122.852)" fill="#f2f2f7" font-size="21" font-family="Inter-ExtraBold, Inter" font-weight="800"><tspan x="0" y="0">Need Help?</tspan></text>
                <g id="Group_32" data-name="Group 32" transform="translate(37.279 136.174)">
                  <text id="Just_send_me_a_message_or_" data-name="Just send me a message or " transform="translate(8.132 10)" fill="#8e8e93" font-size="10" font-family="Inter-Medium, Inter" font-weight="500"><tspan x="0" y="0">Just send me a message or </tspan></text>
                  <text id="open_up_a_bug_repot_I_got_you." data-name="open up a bug repot! I got you." transform="translate(0 22.875)" fill="#8e8e93" font-size="10" font-family="Inter-Medium, Inter" font-weight="500"><tspan x="0" y="0">open up a bug repot! I got you.</tspan></text>
                </g>
                <rect id="Rectangle_198-2" data-name="Rectangle 198" width="229" height="30" rx="3" transform="translate(0 251.892)" fill="url(#linear-gradient-23)"/>
                <text id="Next-2" data-name="Next" transform="translate(103 269.892)" fill="#f2f2f7" font-size="10" font-family="Inter-SemiBold, Inter" font-weight="600"><tspan x="0" y="0">Next</tspan></text>
                <g id="undraw_helpful_sign_s6al_1_" data-name="undraw_helpful_sign_s6al (1)" transform="translate(51.072)">
                  <path id="Path_86" data-name="Path 86" d="M303.755,635.034h-51.2s-1.038-15.222,5.1-15.394,5.448,6.746,13.146-2.767,17.04-8.994,18.252-3.373-2.335,10.119,4.151,8.735S309.031,624.485,303.755,635.034Z" transform="translate(-233.81 -541.231)" fill="#6383ff"/>
                  <path id="Path_87" data-name="Path 87" d="M441.7,634.441l-.173-.007c.4-10.022,2.5-16.461,4.192-20.1a18.269,18.269,0,0,1,3.62-5.563l.115.13a18.119,18.119,0,0,0-3.584,5.52C444.19,618.045,442.1,624.458,441.7,634.441Z" transform="translate(-398.22 -540.635)" fill="#f2f2f2"/>
                  <path id="Path_88" data-name="Path 88" d="M583.977,730.6l-.166-.049a26.83,26.83,0,0,1,6.755-11.239l.116.128A26.647,26.647,0,0,0,583.977,730.6Z" transform="translate(-521.965 -636.771)" fill="#f2f2f2"/>
                  <path id="Path_89" data-name="Path 89" d="M284.587,705.306l-.171-.023a18.839,18.839,0,0,0-1.694-11.011,15.162,15.162,0,0,0-2.674-3.9l.12-.125a15.35,15.35,0,0,1,2.71,3.95,19.009,19.009,0,0,1,1.71,11.112Z" transform="translate(-257.776 -611.491)" fill="#f2f2f2"/>
                  <rect id="Rectangle_211" data-name="Rectangle 211" width="0.261" height="24.102" transform="translate(99.508 3.388)" fill="#3f3d56"/>
                  <path id="Path_90" data-name="Path 90" d="M793.4,733.257a8.8,8.8,0,0,1-3.278,4.433,7.573,7.573,0,0,1,2.682-9.915A8.8,8.8,0,0,1,793.4,733.257Z" transform="translate(-700.684 -644.132)" fill="#6383ff"/>
                  <path id="Path_91" data-name="Path 91" d="M767.56,733.257a8.8,8.8,0,0,0,3.278,4.433,7.573,7.573,0,0,0-2.682-9.915,8.8,8.8,0,0,0-.6,5.481Z" transform="translate(-681.581 -644.132)" fill="#6383ff"/>
                  <path id="Path_92" data-name="Path 92" d="M743.489,751.013a8.8,8.8,0,0,1,2.28,5.02,7.573,7.573,0,0,1-7.36-7.164A8.8,8.8,0,0,1,743.489,751.013Z" transform="translate(-656.423 -662.477)" fill="#3f3d56"/>
                  <path id="Path_93" data-name="Path 93" d="M797.183,751.013a8.8,8.8,0,0,0-2.28,5.02,7.573,7.573,0,0,0,7.36-7.164A8.8,8.8,0,0,0,797.183,751.013Z" transform="translate(-705.555 -662.477)" fill="#3f3d56"/>
                  <ellipse id="Ellipse_47" data-name="Ellipse 47" cx="54.393" cy="1.263" rx="54.393" ry="1.263" transform="translate(0 92.381)" fill="#3f3d56"/>
                  <path id="Path_94" data-name="Path 94" d="M317.21,549.415l-.722,6.317s-2.526,6.134-2.888,10.648l-.361,5.054h2.348s3.068-7.219,3.249-9.2l4.331-13.178Z" transform="translate(-286.644 -488.695)" fill="#a0616a"/>
                  <path id="Path_95" data-name="Path 95" d="M387.86,549.415l-.722,6.317s-2.526,6.134-2.888,10.648l-.361,5.054h2.348s3.068-7.219,3.249-9.2l4.331-13.178Z" transform="translate(-348.089 -488.695)" fill="#a0616a"/>
                  <path id="Path_96" data-name="Path 96" d="M429.6,433.273l1.985,5.054s-.18,4.331,2.166,3.971-.361-4.7-.361-4.7l-1.443-5.234S430.145,432.01,429.6,433.273Z" transform="translate(-387.848 -387.172)" fill="#a0616a"/>
                  <circle id="Ellipse_48" data-name="Ellipse 48" cx="3.249" cy="3.249" r="3.249" transform="translate(35.167 23.451)" fill="#a0616a"/>
                  <path id="Path_97" data-name="Path 97" d="M372.8,298.316s-1.083,3.609-1.8,3.609,4.873,2.166,4.873,2.166-1.443-1.443,0-4.151Z" transform="translate(-336.818 -270.624)" fill="#a0616a"/>
                  <path id="Path_98" data-name="Path 98" d="M327.627,419.193l-4.7,13.717a9.589,9.589,0,0,0,4.331.9c2.707,0,14.8-.361,14.98-1.444s-3.787-13.178-3.787-13.178l-.722-4.512-8.843,2.348Z" transform="translate(-295.077 -371.828)" fill="#2f2e41"/>
                  <path id="Path_99" data-name="Path 99" d="M304.784,719.447h-3.249l-.542,2.348a2.187,2.187,0,0,0-.722,2.348,26.564,26.564,0,0,1,.18,5.054l3.609,2.348a3.6,3.6,0,0,0,.361-3.429Z" transform="translate(-275.301 -636.889)" fill="#2f2e41"/>
                  <path id="Path_100" data-name="Path 100" d="M375.434,719.447h-3.249l-.542,2.348a2.187,2.187,0,0,0-.722,2.348,26.559,26.559,0,0,1,.18,5.054l3.609,2.348a3.6,3.6,0,0,0,.361-3.429Z" transform="translate(-336.747 -636.889)" fill="#2f2e41"/>
                  <path id="Path_101" data-name="Path 101" d="M350.055,321.514a10.228,10.228,0,0,1,3.237,1.415l1.275.751,1.624,3.429s1.263.542,1.263,2.888,1.8,6.317,1.8,6.317,1.263,1.083.361,1.624a4.349,4.349,0,0,1-1.985.542s.9-3.429-.9-3.609-2.707-.361-2.888,0-5.054,5.6-7.039,5.054-.9-5.956-.9-5.956l1.624-12.634a6.778,6.778,0,0,1,1.985,0C350.235,321.514,350.055,321.514,350.055,321.514Z" transform="translate(-314.796 -290.573)" fill="#d0cde1"/>
                  <path id="Path_102" data-name="Path 102" d="M332.633,433.273l1.985,5.054s-.18,4.331,2.166,3.971-.361-4.7-.361-4.7l-1.443-5.234S333.174,432.01,332.633,433.273Z" transform="translate(-303.511 -387.172)" fill="#a0616a"/>
                  <path id="Path_103" data-name="Path 103" d="M323.5,319.444l-.361-.18s-1.083-1.083-2.348.361-2.526,9.024-2.526,9.024V331s-1.443,1.985-.18,3.068,1.444,1.263,1.444,1.263,1.263-1.8,2.707-.9l.18-.722a2.233,2.233,0,0,0,.361-.541c.18-.361.541.18.361-.361a1.409,1.409,0,0,1,0-.9c0-.18.18-1.083.18-1.083l-.18-5.6Z" transform="translate(-290.412 -288.504)" fill="#d0cde1"/>
                  <path id="Path_104" data-name="Path 104" d="M334.661,243.237s2.639-5.756-4.258-5.748c0,0-4.231-2.223-7.454,2.932l-3.325,5.42.85-.169.108.846,1.084.665.816-.843-.135,1.287,9.341,3.967s-3.522-3.9-2.163-8.5l.551,1.125Z" transform="translate(-292.196 -217.307)" fill="#2f2e41"/>
                  <ellipse id="Ellipse_49" data-name="Ellipse 49" cx="0.456" cy="0.912" rx="0.456" ry="0.912" transform="translate(36.322 26.708)" fill="#a0616a"/>
                  <path id="Path_105" data-name="Path 105" d="M575.916,3.388V0H537.978V72.7h-2.189V92.761h7.3V72.7H540.9V3.388Z" transform="translate(-465.985)" fill="#3f3d56"/>
                  <ellipse id="Ellipse_50" data-name="Ellipse 50" cx="10.292" cy="1.824" rx="10.292" ry="1.824" transform="translate(89.346 1.563)" fill="#6383ff"/>
                  <rect id="Rectangle_212" data-name="Rectangle 212" width="41.951" height="22.93" transform="translate(78.663 26.969)" fill="#6383ff"/>
                  <rect id="Rectangle_213" data-name="Rectangle 213" width="28.922" height="14.353" transform="translate(82.311 32.68)" fill="#f2f2f2"/>
                  <path id="Path_106" data-name="Path 106" d="M774.813,331.219H739.9V313.762h34.913Zm-34.656-.261h34.394V314.023H740.157Z" transform="translate(-657.715 -284.057)" fill="#3f3d56"/>
                  <rect id="Rectangle_214" data-name="Rectangle 214" width="18.752" height="0.261" transform="translate(87.396 36.99)" fill="#3f3d56"/>
                  <rect id="Rectangle_215" data-name="Rectangle 215" width="18.752" height="0.261" transform="translate(87.396 39.725)" fill="#3f3d56"/>
                  <rect id="Rectangle_216" data-name="Rectangle 216" width="18.752" height="0.261" transform="translate(87.396 42.461)" fill="#3f3d56"/>
                  <circle id="Ellipse_51" data-name="Ellipse 51" cx="5.993" cy="5.993" r="5.993" transform="translate(113.97 19.933)" fill="#3f3d56"/>
                  <path id="Path_107" data-name="Path 107" d="M1009.046,233.514l-3-3a.521.521,0,1,1,.737-.737L1009,231.99l7.059-8.047a.521.521,0,1,1,.784.687Z" transform="translate(-889.058 -205.784)" fill="#6383ff"/>
                </g>
              </g>
            </g>
          </g>
        </g>
      </g>
    </g>
  </g>
</svg>
