<svg xmlns="http://www.w3.org/2000/svg" width="93.589" height="81.096" viewBox="0 0 93.589 81.096">
  <path id="speedometer" d="M96.362,62.082a46.839,46.839,0,0,0-68.186,64.16l.035.039c.064.068.125.139.2.2.144.164.308.349.5.543a8.035,8.035,0,0,0,11.78-.082,30.666,30.666,0,0,1,45.134,0,8.037,8.037,0,0,0,11.837.012l.626-.683.035-.039a46.826,46.826,0,0,0-1.952-64.162Zm-36.242,1.9a3.123,3.123,0,1,1,6.245,0v6.245a3.123,3.123,0,1,1-6.245,0ZM38.262,98.334H32.017a3.123,3.123,0,1,1,0-6.245h6.245a3.123,3.123,0,1,1,0,6.245Zm9.524-18.58a3.123,3.123,0,0,1-4.415,0L38.955,75.34a3.123,3.123,0,1,1,4.417-4.417l4.415,4.417A3.123,3.123,0,0,1,47.786,79.755Zm29.138,4.508L67.654,99a6.05,6.05,0,0,1-1.366,1.366A5.876,5.876,0,1,1,59.456,90.8l14.735-9.27a2,2,0,0,1,2.283,0,1.963,1.963,0,0,1,.449,2.732Zm6.191-4.508A3.123,3.123,0,0,1,78.7,75.34l4.415-4.417a3.123,3.123,0,0,1,4.417,4.417Zm12.857,44.419Zm-1.5-25.84H88.224a3.123,3.123,0,0,1,0-6.245h6.245a3.123,3.123,0,0,1,0,6.245Z" transform="translate(-16.501 -48.463)" fill="#6383ff"/>
</svg>
